<svg width="54" height="51" viewBox="0 0 54 51" fill="none" xmlns="http://www.w3.org/2000/svg">
<g id="Iconly/Light-Outline/Heart">
<g id="Heart">
<path id="Combined-Shape" fill-rule="evenodd" clip-rule="evenodd" d="M27.0681 2.96723C31.2371 0.331485 36.7753 -0.396679 41.5596 1.13657C51.9667 4.49278 55.1973 15.8383 52.3077 24.866C47.849 39.0447 28.8065 49.621 27.9989 50.0645C27.7117 50.2235 27.3938 50.303 27.0758 50.303C26.7579 50.303 26.4425 50.2261 26.1554 50.0697C25.3529 49.6312 6.44882 39.2113 1.84139 24.8685L1.83882 24.866C-1.05332 15.8357 2.16701 4.48766 12.5638 1.13657C17.4456 -0.44283 22.7658 0.252002 27.0681 2.96723ZM13.7433 4.7979C5.33093 7.51056 3.21823 16.5588 5.50272 23.6942C9.09738 34.8782 23.2991 43.9213 27.0733 46.1596C30.8602 43.8982 45.1645 34.7552 48.6438 23.7045C50.9283 16.5613 48.8079 7.51312 40.3828 4.7979C36.3009 3.48771 31.5397 4.2851 28.2527 6.82855C27.5656 7.35672 26.6118 7.36698 25.9195 6.84393C22.4376 4.22613 17.8892 3.45951 13.7433 4.7979ZM37.9214 9.88965C41.416 11.0204 43.8646 14.1151 44.1646 17.7738C44.2492 18.8327 43.4621 19.7609 42.4032 19.8455C42.3493 19.8506 42.298 19.8532 42.2442 19.8532C41.2519 19.8532 40.411 19.0917 40.3289 18.0866C40.1597 15.9791 38.7495 14.1997 36.7419 13.551C35.7292 13.2228 35.1754 12.1382 35.501 11.1306C35.8317 10.1204 36.906 9.57172 37.9214 9.88965Z" fill="black"/>
</g>
</g>
</svg>
