<svg width="52" height="51" viewBox="0 0 52 51" fill="none" xmlns="http://www.w3.org/2000/svg">
<g id="Iconly/Light-Outline/Work">
<g id="Work">
<path id="Combined-Shape" fill-rule="evenodd" clip-rule="evenodd" d="M49.7888 32.3895C50.8349 32.468 51.6175 33.3824 51.539 34.4285L51.0578 40.7836C50.6601 46.0267 46.2351 50.1326 40.9793 50.1326H11.5975C6.34168 50.1326 1.91667 46.0267 1.51901 40.7836L1.03775 34.4285C0.959232 33.3824 1.74444 32.468 2.79053 32.3895C3.84169 32.3515 4.74847 33.0936 4.82953 34.1423L5.30825 40.4948C5.55647 43.7673 8.31735 46.3332 11.5975 46.3332H40.9793C44.2594 46.3332 47.0228 43.7673 47.2685 40.4948L47.7498 34.1423C47.8308 33.0936 48.7604 32.349 49.7888 32.3895ZM29.5563 0.132568C33.3632 0.132568 36.5169 2.9853 36.992 6.66502L41.9806 6.66724C47.2895 6.66724 51.6056 10.996 51.6056 16.3202V25.0309C51.6056 25.7072 51.246 26.3303 50.6659 26.6697C44.4139 30.331 36.494 32.4665 28.1877 32.7514L28.1886 37.3071C28.1886 38.3558 27.3375 39.2068 26.2889 39.2068C25.2403 39.2068 24.3892 38.3558 24.3892 37.3071L24.3876 32.752C16.0896 32.4697 8.16906 30.3337 1.91237 26.6697C1.3298 26.3303 0.972656 25.7072 0.972656 25.0309V16.2948C0.972656 10.9859 5.30141 6.66724 10.6231 6.66724L15.5858 6.66502C16.0608 2.9853 19.2146 0.132568 23.0214 0.132568H29.5563ZM41.9806 10.4666H10.6231C7.39613 10.4666 4.77203 13.0806 4.77203 16.2948V23.924C10.7844 27.1908 18.3642 28.9813 26.2537 28.9847L26.2889 28.9815L26.317 28.9825L27.5231 28.9699C34.9845 28.7922 42.1024 27.0219 47.8063 23.924V16.3202C47.8063 13.0907 45.1948 10.4666 41.9806 10.4666ZM29.5563 3.93194H23.0214C21.3159 3.93194 19.8762 5.09271 19.4509 6.66566H33.1269C32.7016 5.09271 31.2619 3.93194 29.5563 3.93194Z" fill="black"/>
</g>
</g>
</svg>
